<svg xmlns="http://www.w3.org/2000/svg" width="18" height="18" viewBox="0 0 24 24" fill="#0ea5ff"><path d="M22.46 6c-.77.35-1.6.58-2.46.69a4.28 4.28 0 001.88-2.38 8.49 8.49 0 01-2.72 1.05A4.25 4.25 0 0015.5 4a4.26 4.26 0 00-4.14 5.23A12.07 12.07 0 013 5.1a4.25 4.25 0 001.32 5.67 4.2 4.2 0 01-1.93-.53v.05a4.26 4.26 0 003.41 4.17 4.25 4.25 0 01-1.92.07 4.26 4.26 0 003.98 2.96A8.53 8.53 0 012 19.54a12.06 12.06 0 006.53 1.92c7.84 0 12.13-6.5 12.13-12.13 0-.18 0-.36-.01-.54A8.66 8.66 0 0022.46 6z"/></svg>